<mxfile host="65bd71144e">
    <diagram id="0gTv71sJAcxqEa9L0lDl" name="Page-1">
        <mxGraphModel dx="1987" dy="913" grid="1" gridSize="10" guides="1" tooltips="1" connect="1" arrows="1" fold="1" page="1" pageScale="1" pageWidth="850" pageHeight="1100" math="0" shadow="0">
            <root>
                <mxCell id="0"/>
                <mxCell id="1" parent="0"/>
                <mxCell id="4" value="" style="shape=image;verticalLabelPosition=bottom;labelBackgroundColor=default;verticalAlign=top;aspect=fixed;imageAspect=0;image=data:image/png,iVBORw0KGgoAAAANSUhEUgAAAWsAAABcCAYAAACoTpTZAAAAAXNSR0IArs4c6QAAAARnQU1BAACxjwv8YQUAAAAJcEhZcwAADsMAAA7DAcdvqGQAAABfaVRYdFNuaXBNZXRhZGF0YQAAAAAAeyJjbGlwUG9pbnRzIjpbeyJ4IjowLCJ5IjowfSx7IngiOjM2MywieSI6MH0seyJ4IjozNjMsInkiOjkyfSx7IngiOjAsInkiOjkyfV19vklk2gAADEBJREFUeF7t3T12qkwYB/DHdyNJISk8rgBXoGlS2d6OlNKks7RLo6V2aa3SBFegK8ixiBbJSnznEwfk26hM+P/u4dwEBGZGeRweCNM6MGT4+fmhu7s79VtzoR3gL7Hl89z04y6r/v+p/wEAoMYQrAEALIBgDQBgAQRrAAALIFgDAFgAwRoAwAII1gAAFmh9f39H7rO+v79XPwEAwLWxmKx+ijr5o5hWq0WxWQAAcAVZ8RdpEAAACyBYAwBYAMEaAMACCNYAABZAsAYAsACCNQCABRCsAQAsgGANAGABBGsAAAsgWAMAWADBGgDAAgjWAAAWQLC21oqeWy1q9Wa0V3Oi9jTrseWtZ/bKazt336puFy97XhteuhzXqif8BQjWt7SfUU8crElTj2bJEeQKdBCJTs8XiSi3/FK5pOQ27N3uTQXLIVjfUntE68NBPBJxN3XFLHe6E78fDmsatcWs23GntBNl2REv3mJwrS+QPs3Ffufsp1v6hXKEbSjf443vUCv81qtLPcEGCNZ1t3rO7Zl9PB+XZ/d+dS9WT0WDb5seuvz/DW13YgZTcluJ9eDbcMjf8BcsaMCXiZREUm873lM19yeX9WarSJnMtlgZbXQMlkfJbRgvR/5+srRHawo89sNioNZJqGfW+x1bJibeXuoMrTebqTZS20vbVvj603qY7VS0XnAdCNZ1xg+qSSfSu934r8cDm9v4tH06Lk/v/erA6FGgenqBtyHfKZJ+WNH7gv/v0ZPoApbcVmo92jRay9/5tsW21iM2N44HyQEL53p/fB2+v2hdN/6AtmO+PGCv5G1xDFoDVn591rLrvEfbKGzD2Hop+H6WQ76tvDY/5XREZenzK2GFrPebL2OVkHUw2sxor43vE2sgtpz11At8djb+hOiNLd9NiW9uMWjRpMO3X6wd4Lr++/n5IXOCGuFpkvBg1L3bT4oc5+w0+0UE0DY9DvkhZ/Z+DfsPWvIerPcUnnL3n8QhSe9pRyQLYo7oZbFAKU7n1el62W0VqUeW1TvbMq/qi9rfsa7LD2MjYVv0SRQnto/N8oN9zfDizKMpppz1TrDXv4kN5LR5grasfLKsdtpt2V5cGj6a+40J68EU+uwMSW7ukeTmPBqLehVsB7iIeEzW0393d3dkTlAv5mkp7x0WkdhrEwc7w07B9fZaeRsUAVrl01ng/qe7jxW2VaUe2v7rU/10lBn04vpzmX4Iv3x+v8eY2OYJkupiSm0np8NCtf5y2tMH/7Z0O+TIpVL3QQVn6Zw2h9uJx2Q9IQ1SY/tZTxxknji15akGtSBH98E8ZKOOFzCP01z3xlK0H4fiNFn3TLWi26paDy0pMOugl1VXU38u9y0v5C5oUjRvUVDRcuy2/GtO95CjirSTuEDZ4ikol6ZvxxRI3LltDvWDYF17LnVE90nnjWNYb/FVdBNX9Cqu1Om8ckz/SeQhT3LeRbBT6rFcWe6r0rbS6lEgLaL3F35ZqJ5lWl1jeODSF9dK9cjThGcZOW0eowMoeeOMO32S22n/sRRpkOlOBt9idwvlfHbAKgjWNdYejVkY4BfS+KnsgB3kp90jdxpQZyKXizgQpN0Gxm8T4xeO1F0X4VQsJSBz0qxPKpLS5baVV4/+C7/ApZYn/oEK2x+/CBamMfTFzWK3vLVHbzRc8h4pW1d2N2mdH+nSuR51xfby2pwJy9wihwV2cTaSciqT1U7RZXpKf++KfHbALi32LR0Z95x/CGKzAEBQd6XwXL5xF8Y18PzzYMF71qpHze/2cHzasC+etOAP9smKv+hZA9TenmSKvkthalxf5IXGQLAGqD1+P3os7aTSOehVNwfSIAAANYE0CACA5RCsAQAsgGANAGABBGsAAAsgWAMAWADBGgDAAgjWAAAWQLAGALAAgjUAgAUQrAEALND6/v6O/G3j/f29+gkAAK6NxWT1UxSeDZIC7QB/iS2f56Yfd3g2CACA5RCsAQAsgGANAGABBGu4gj3Nei16zhjskQ9b1cp6AUDDIVgXIoMNT/4fp2IDzf4dfPzBeBvoqWltAXB9CNYliJGpDwcxBd6CBo3qCfIRzWXdD3ykcfZvulO/FxxlHACqQ7CuqP/kEX1+sT63Fu99R3ub+1nPWNajWbhi1noJ6YPVM7V6M7Vf3ttl25qxeea6fOTrcHvm+lXLWFDqfjWzd563/eyyAjQNgnUlLJBMFkTdB9KDTa+eHfK7Qdjz3k0/aaCDKgti//wuBbpneljTSKzIA1LCeqUC04Z8n9S2eQ+XBUSHzQjPAgKiiSxHtTIWxfb7j+gt3LZLC7VfbTGYUEf1xlnnnHwnvZ6ZZQVoInYgRCTMaqRoO+wOLPaIeXpypzu1jNlNDy65B3MWC5IHT88Ty+ngsUgYIeZ77JUmYz2138h6gXcgd8qWiF/YaxOWn2yTqVrGJInbionULaEekXryYrN21S/IKyuUZstxbUs5LyWr/uhZlxDmrFlk2fivsV4h6+E65mn7gFjfW2qPaM26kp8Duaynz/93W7ZWnEMdd0Pbnfq1CrfDtpKkQhlLiKRRWO/+tG5xWfXMKCtAAyFYV9F/oam7oEkkoHlGCkFPRiqBB0MxL6Cu78h8rtMh1puN2dF241InOdoWs9myrSSpUMaiVs/kmGkUcREyT1Y9c8oK0DAI1pW0aTQ2etftRxqeBO80vOesflTrmXeV7GcTWrhDehRBqU0PXaLFu1rOL+ANcvqX/ScW5syyrOiZ53qrlrGi1etpz3oxOF5UjNYzplRZARqC9VgiEmY1UrQdZM41kqcWOVQzD3ua1w5zyyKPbMyPJpnFdk7WCZnLvUOQl7PmVP5ZrmPmeauWMSYlZy3yzmp9dzplZTNz1uz1gVmuaF49krMWMsoKpfH2s4Et5byUrPrjqXsp0A7wl9jyeW76cZdVf6RBAAAsgGANAGABBGsAAAtgWC8AgBrBsF4loR3gL8EFRjvgAiMAgOUQrAEALIBgDQBgAauCNX9QUPEHDCU8CzqkngP9m3/NHHnONAD8hvOGe8uKAfbJDdbiSWq/XFvxBpQObCt69YmGiQ+TKKtPL1Oi5UfxElQrMwD8piYfhzfpWffnBzqsR+GD+wtZvac/+KeC9kOXNsuPwm96pTIDwK9q8nGYEazlKYTjb/jj0sQtJccUhFzG58nJHPGDL+MphvQhnE5ObXKHg+KxOjoyS5H9RPA0hbmcP51us6SinevsMrPtfqn5ALWn0wMZx07qMZl03PHj34wJ8ePQXKZfX030OCxQD1M8BlgmI1i3abSWwzORJ4dXWouHCfMGyhuKij84vugQTqyhU4ahOtrT1yd/pn784ccF98PfpMEn24X5PORzHvLP2uCfWeYxbX08Gh/sYg6zFnjsWHrVRw47JjOHaOPH3Ts9ieU78Wz3Qcuh7dg4Dv8dX3/pIdrS62FIjAF2KZ8G2X/QcuNRMD+OZ90ejcmjT/oyWt8Ljo2StDzE0xts6ThswT7NT05z+AP5ecf6tJVz9/PFnwGd9CbJZ0V/JhYqh2qDSJkDT/0MYAfz2IkOAB09BtuPQ3JjA1p4gR7Rvk2PQ9mh0yGBpxjDATBYD32ycGn6EosXJc5q86TXQ0mNAXYpH6wrD0WVsTx1GKoqovtZ+EWGlyopsQ0A/o7yQ7Rl4T1xnabg03WHaLtIDLiB8sG68lBUGctTh6GqIrofLzg9LTtbYhsA/BGrKkO0ZbntEG0XiQE3UCxYm6cVuUNRSYWHcEobhkr9JslhppJSFkX20x690ZR8ciJXLmUePCm1kqv9QF2zzEWG2wKwVNIQbYXVZIi25Bhgl9xgLfNVrJLs9EXeDcIvPAbkqTtE+OQsh7SL5Zm9YExbdeojvqVTb7fp01xeGVTbm1DnLf5amV/eJORRiu3nWObjHS3nDEwbK7OzpfHZvQ+AmujPKfD4RUN5XE06U9ahqoofezsaLvXxraar3yudFAPscoGn7sm7RfiVYeMa5Pn41dxJx/hSOHM/4uowsdMzfaEk6vx2AKgPWz7PTT/usupfPmd9KyXvi84j7tv2nhIDNQBA3dgTrFlYLfsn4ulW9B67nQgAoM4w+EAKtAP8JUiD2CGr/hjWCwCgRgoP6/Xz80N3d3fqt+ZCO8BfYsvnuenHXVb9LcpZAwA0F4I1AIAFEKwBACyAYA0AYAEEawAACyBYAwDUHtH/mmWRDmAw8CkAAAAASUVORK5CYII=;" vertex="1" parent="1">
                    <mxGeometry x="600" y="305" width="363" height="92" as="geometry"/>
                </mxCell>
                <mxCell id="5" value="" style="shape=image;verticalLabelPosition=bottom;labelBackgroundColor=default;verticalAlign=top;aspect=fixed;imageAspect=0;image=data:image/png,iVBORw0KGgoAAAANSUhEUgAAAsIAAAE+CAYAAACHqnYmAAAAAXNSR0IArs4c6QAAAARnQU1BAACxjwv8YQUAAAAJcEhZcwAADsMAAA7DAcdvqGQAAABhaVRYdFNuaXBNZXRhZGF0YQAAAAAAeyJjbGlwUG9pbnRzIjpbeyJ4IjowLCJ5IjowfSx7IngiOjcwNiwieSI6MH0seyJ4Ijo3MDYsInkiOjMxOH0seyJ4IjowLCJ5IjozMTh9XX1egdAfAABH9ElEQVR4Xu3dO3bquvvw8Yd3Ir9dwC6yMgJnBJAmFe3unDI06VKmS0PK0J02VZrACMIIslJsKPZ/JLySLBv5bu6+fD9ncXbAN9mS7QchS72NIgX+7//+T/73v//Zd2gq8hFtQnk+P455s5Bfh+H4tUdZXv4/+y8AAADQKQTCAAAA6CQCYQAAAHQSgTAAAAA6iUAYAAAAnUQgDAAAgE4iEAYAAEAnEQgDAACgk3r//v0rHFDj169f9i8AAACgWVSsa/9KKx1ZrtfrScksAAAAQO2UxbE0jQAAAEAnEQgDAACgkwiEAQAA0EkEwgDQOAu57/Wk17tXf53aWl5v3G2dc9sAcFoEwgDqa3FvHnSIXjevKiwzE2wwFn/dR5FZMngLJYO47PXcvAZbSQvXG39tt3sKeftSF3VPHwDkIxAGUEvr1xvpjWYi/tw88atfq/G7/HGDVG8qKzNtJVNPZDa6kdwYtki0HrUNtaLlZCC9wujWl7mdX7/ehvbjsxnKm9n2m/rr3C65bQA4LgJhADW0kJfJUv2rAk4nyuw/fMnXQ9++c/Xl97X+dyk/K/PB3vQ25r76YzbaraZ3/So3uoY4WiisKQ2D86D2+eZ1EatVjm0jXEc0Ta9jIOZQyExG+nNTK55VC5us3Xa/FFTYdqL2vbxWXG87K333ch/bb82mLarRB4B6IBAGUD+LDxVWKf5dxVrHhXwEC8jdEaopB1ee+ff77/HDtuVkJD9PukZ1rlKr422nmcZgIsuodnou8vwpt19BbXdUC/31oML+JB1ojtQxC2uq9TJLmQziNeS529YB+PNVrHZ9OXmx6SrSl4dU+t7kcaw/WMr7p924zU9vfJuRdgC4HAJhALWz/vtt/yqxnMjA1GCqINAEkMf5ub4fVC8XsLWf5rVjcwyVzkeTyKHc6WhUvsXE26lgcShvmUFvhnDZ6aPd/77cJoNRLW/b/Qf5irYV1q7baXvoPzyZQHv5/mlqgBfmW4on41vCYAD1QiAMoHbKA1HL1p7qdr06KI61Hz5AeSDuthH+kszWGjsKt3n9e/eVZaW38jG0FvdhYN8T3TT7MDbQXr7L53otJnneWIiDAdQNgTCA+hlcifm1ffZR4ed5FfTdjs38YQ3kVk6tpnclA/tnltWPbvR6mRrMfZpjZAW9uwTW+sHE4LnEILg3baQPNAwiYZn8+SPv6nDSLAJAHREIA6if/oM8mWBsJiP3ia7FffZDXOH8y4m8mNm3TQMmwQfG+vW5tK1qGBSK/7RbTW//t5hwNAzeFy/2IbJq0sH8Qu7Nw2UVmioM72JNEdReyKeOPtWn1dtMe3Jlvh2E7a2ryknf8DFoO7xcqlygWQSAeiIQBlBLwzfb5GE2in6y7z1fyX850WlQA6nj0CDw1b0/bHTVprP8QEWmutYz1fNE1NY4mMebrmSzc59oQ3kLupsI2g+rtM6Dp8iq0e10V1PxorQ8y9V/Qbvd4aP6XAf1A/V5Zs8LatuxZXVPDrr5RrU200GbXrv+3kjFz8GxrCo7feGXEYVmEQBqqrfRv4MV0DeGklkAAEjTXbKNZuaLRXa3dwBwWmVxLDXCAICTCHqL2O8BQAA4BwJhAMDxrV/l2cTBx+nbGQBOgaYRAAAAaKWyOLb379+/wij3169f9i8AAACgWVSsa/9Ko0a4I8hHtAnl+fw45s1Cfh2G49ceZXlJG2EAAAB0EoEwAAAAOolAGAAAAJ1EIAwAAIBOIhAGAABAJxEIAwAAoJMIhAEAANBJBMIAAADoJAJhAAAAdBKBMAAAADqJQBgAAACdRCAMAACATiIQBgAAQCcRCAMAAKCTCIQBAADQSQTCAAAA6CQCYQAAAHRS79+/fxv7d6Zfv37ZvwAAAIBmUbGu/Sutt1Hs35l6vZ6UzAIAAADUTlkcS9MIAAAAdBKBMAAAADqJQBgAAACdRCAMAJ20kPteT3o3r7K2n8St5fVGTe/dqzkBoJ0IhAE0lA3kEq/7LkVt61e5yTgGwetGXrMjXACARSAMoNm8qaw2G9lsVjL1RGajDgWA/Qf5Mvu+kZXeecWbrsz7zeZLHvrmIwBADgJhAC3Rl9/X+t+l/KzMB0r48352Leni3pkWq0pO1jY7y4W1sNH84TbsPHb6zeurXYdtWpCovd1ubt80VrS4d9at05X+lvDpbKN4E8VpBYCmIRAG0BIL+Zjpf325G+p/ddA2kMnSl7mtNZ37S5kMbGCqAsSRmj+sQV1dfdigTgfBI5mp9QTL6ZpmvdxuQd9yMhG1ArX8mwz1OgcTWUa113ORZ902d980VqSD7+erWI35cvISrDu0nMjP3XZ6fo16SVoBoIEIhAE0mwrkBqZ2UgWvJtDUgaey/pT3pfrXvwveK8M7X/1/Jh9O5LZ8/1Qhnm5l8BY0JVh8qDl08Plol+vL7Vg3O1jK++cOUahKy2O44XCd41u1Nm0ob18P0t83jVXpphN6O8EbW2P+LX/d3YjSud3PbY26o2JaAaBJCIQBNJutZTVtZFVQ/Ceszlz9qJBOmY22P+Xr6tXQ8E3mOo6LAumgZnP999tMdvWDCHI3179tALpd5/XvRBS7Zxp34TatcFdd5DsWKVtlaQWABiIQBtAK/duxmPpMW3sa2j48tn292SrN4VvwPnjQbCbPKojOCnpzA9kdZQaYyq5prGr9emOCX9800dBNGeyEEkX7WZRWAGgaAmEA7dB/kCdbe/qiq02HdxK8TbSJtXSQGD44Fgt+w+WigHotn0GbgKDtcf+3mLlnH8F6Fy8yMVWl+dJB+kLudf+9+6ZxJ55cDfS/YRvqhPB4qekvZkfCNtYJJWkFgEZS3+YLVZgFAC5gvlGB2Ua86WZlP9nMfXPN0lWg9oNgntjLV59qq83Ucz6PllFW040KXDOWscLt6Jfa/nzqqb+9zVQnJFzWXZ8WW6ed19gzjQkrkwbZeNsVK/F1+75Od7jtYJo3nce2sd1EuG1334vSCgD1o69TRXr6f2qmXLodWMksAAAAQO2UxbE0jQAAAEAnEQgDAACgkwiEAQAA0Em9f//+FTYA/vXrl/0LAAAAaBYV69q/0nhYriPIR7QJ5fn8OObNQn4dhuPXHmV5SdMIAAAAdBKBMAAAADqJQBgAAACdRCB8VAu57/Wkp4dOtZ8cZi2vN2p9vRuxo6yisY5dNoB9cE2pP/LoeDiW+ew9qXd/wJDpx1jH5Z04EM66+YcFUx249avcmIO460sX6jAD4q/7zNyIz5uaJ5aOqhnq7If9BG2yS/lKomyc3yH5dUllZSVrv+pYrpp6/I+hKXmkJO65N1F0uOs168TXuMV9lEbzalUFQva5ss2Lumrvfe2yNcL9B/nabMzTfKupZz7ypivz3n2lp33JQ998pPgyN5+tRM82GxVdfD3x9DzP8ZNq/fkuSzsNiNulfOHivKmsYvnVkpqgcL9WU3WlmsmoroFBW49/FXXPIx0EDyaydPJo/P5Su6Bm/XojvdFMXXrnKo06nSoGGL/Ln7YVpCgfghhnORlI76w3l6G8me2/qb/2dYx1XF6Lmkb05XYcRLLff/NOmGsZ63mW7/IZzbKQl8lSnXRjGdtPtsJvQOErvKjrzweiF1OXehnpaYmL3uf9drl42U5+G0zcKNxvwjcv8mM/xqVllK9ErUXwjf6QsoHj6cvva/3vUn5W5gMl73y23NoylWcLfUMO5wmnRRkWrstdR/H6F06+B+spLysp/d/qKqYsfyTarb2vKVn7YNd1cBC3+/FPHx/zqUnPzesitmz1a2r58tnb1YrTm6uuebT6UbmhXP9WuaP15eFLBzAF5XCXa1yFcyT/WIfs/VhXQLxtQ6v+w5d8RbVf+x7L0J75ekJ6/+a++mM2cspmcTpzj2Wi1t9Msp/dvL7aY6drdcP1hzW8RedKTp6n1qEV5U/RNi5IfRspVGGWAvONytuN+uazUd98rNVGfflR6/XV1C31jchsy5tu5wxlT7PrdtaTvw5n3tV0o8KZ7Txz3yzjz5PpSqdTFdTC6dvt6PW578N5ku/DdXibIDl2eni8bNq20/en14NdJPMqUb50OYrKdXnZ2a4vr2xgF+nynDh3Use37HxOLJ889+x1Q4LM0x8kzt2S9dv1hded1dTPXS4uka5UOvL2s9o1JXXNTKTTpT/Pl9hObrp2PT7hesJpOftXtv/qlXne7ZAv8fLisuusQR659DwxYbr0K8qnUHp/zfzRfMnpOfPrdeedI7nH2hHue7SOpMOOZVa68/I1dfyOJpFGK57PJenMPZbJdav3+m8n77eHNrmN8Ngm05B/7PLXEb5PrmO7jczz8UT09oqU5nTZCoptdzr9iu94fhCbNy15AMP34QF3ufPajLEFZVu4EhmaOqkVW/iCj7IKhd2OU8CD9ds0JQqvFtu31PRkIdqfXi92sUv5SuTzPmUDO0mX5zB/nJdzrEvP57Jzr+wmX3H9sTQZWWXFlbFf6hVtJpVunZRdrinxcllUJvV68h3n+KePT/q8CffPXS53/zOWz7omp7Zbev131SePXHqdKeF+ha9ov8vKYXK7GfOXnSN5x9oRHpfYcXcdeix3yFf92Wmky6Thpn3f8yW1/1a4vtj8yTwsOddS82uJzzK2v9P5eCJ6+0XO0zTCaQujDotpO3Y8tpq+N1J/eTJdue2Hs9ifuHXziMWrPM/UR/5dun1L+DPSbBRV35t2SwdY//22f231g98PjazpuLT88uX+NHVg0cCx2GuNuviqc3yybVdYcj4ffO6VXS+Gb8FPnypNAzN9xwdOnHadetfCtuqHX1OGcmfSpZuLrcXM7o3ltvAaWmDP47/P8dFNlMr2v1Tedve5/jchj8Lnckw7ZsXNowxHvcZVyOOyvDv4WJ7gvn4ssbTveb6E67j+nVM4omYxu8lvbhpXlj911YI2wuHDTPpVFgQH+rdjdRFYymQ0Uf9Xwc1jfjNv9S3Grnv7cpou7SSrQLgFtwkFpnuyy5d+oENfl9Q3ZTPNXJRQG8E5rmOHT3Ev4Xnn87HOvaLrxfAteG+CRPW16rkgAMkXb6t+jGvKMIiyZPLnj7yru683vt3rZuna9fhrux6fvP0rDQYSira73/W/AXmkA2J70VpuG3HHnOIaV5rHg6sgQJ99ZH4ROsax1I55Xz+W1Y8OfT0ZO99w9j1fqgauVVU9l45xPl5Cix6W20H/Vux1Sl9Rsr9ZD+9UCKQuEpO8p2rDh0G+pXKZC9cZ3RzW8qmvaurTO1247UUgmr54sY3TUU+eXA30vwv5iFUq7FE2cFzqRv8UnMDyok/gsvO57NwLH4AKb9DJ6SXr10FF2D1S/Gaxe1mJ3TCPcU0ZPga/0i2XpmLAvRHvbcfjn398rKjmcvswldm/sv0vkbvdsvJSoo555O6rtrAXLd8kIq8c7nCNKzlHSvNYC8uNCuxG7hNUi/tg2UOP5YH5eir62JgKX/8pqGwpSWfesUx/AV3I/a4PVeada1WuVWX5U1fqG0WhCrMUyGoLk9XOJNmOJC57ml13Yj3Z0vOm15mVrnA59+VMd9tbmX2s0P7FXca8EukP2/7Y9cxNOg9vP6PXh12Ula942fB9nW85+Vy1bKCydHlOH9/oXIra2cXzLHg5+euee/7UXg+c/Ck9N4vWH15f7CtKk5IqK66sdSbaMx7hmhJeD9Pb39LT8x16/POOT7hef+M706vvfzpd8fOuIF8K0+vKmu8yeeTS88Yl9lW9ctNothHfr/JrnFK4H0XHOi7aV2dd0T4ffCyr5av+/DSyy0s69ilKZ8XrSbjf4WfxDLfrCNdpt1f1XDN5klyHUpg/4Ta2+XmO+6BOR5Ge/p+aKZdum1IyCxqAfESbnL48h90FVXnuoAV0l1Ojmbo/rZxuquIucw3R3S2NZKbb3349SNuzoVCFPHJxzT9M945fe8+1srzsZtMIAEAk/Jm8zu34uo48Ak6DQBgAumxte8+pezu+LiOPgJOhaURHkI9oE8rz+XHMm4X8OgzHrz3K8rL379+/wpz+9euX/QsAAABoFhXr2r/SqBHuCPIRbUJ5Pj+OebOQX4fh+LVHWV7SRhgAAACdRCAMAACATiIQBgAAQCcRCAMAAODkFvc96TnDZyffXwKBMAAAwFnoUStV8NdzX/eySyi4fr2pFDyaIPPmVW0RRQiEAQAAzkgPla17MtCvuT+T0QlqRYdvav1dH5q8AgJhAACACxne+SLff52a22StcVhjHHw+mCxFZiMz7eZVL7WQ+96NvL7ex+ZPNzvIW2/+vMH6t++zlk1Zv8pNNF9PLtzyoRSBMAAAwEWoAFOPn339O6q5XdwPZHI9j2qMV9NvGZkmDn15+NLvPRE/mP71EC61lMlEZG6WeZOskbjz12uD8dnHNrhdf8r70pPxbbD+omXjVFD+R+S/aD5PZs/1bp5BIAwAAHBGy8nA1pgO5H28ks2bDV3Xr/I882T6uA1l+w9P4i/f5bMkmvTn2QGwUbbe4Z34MpMPGwmvP99l6Y3FxME7pWkob05zjP7tWLzlj6zs+zoiEAYAADijqI3w3FdB8UuimcFSJoNt04Jeb6RC1GMoWu9QgkphnZK1fL4vxX9y2xdXT5N5mC+cbzBRS9YbgTAAAMAlDB9l6s3kOWqLq/m2iYP7+pKoFcTeitc7fJyKp5tHmGYRvtzFqpcrpmlxL4PJ9XbelVqnnVRXBMJorTr0TwgAQL6+PDw5tcL9WxmnAuMMsYfrKqiy3nCeP++y9O+2zSyqpinD4oUaYeBCFvIxU99h419pAbSK8yQ7/aWiqWLtc/UDcSsZv4dtiNPlO2h3O5GB+nzbq0OZ8vXqeW7HniyXy8S9s8qy1vAt6A7OzvN8NVX7VnObEhVmqbfVdOOpfdD7Eb78uZ22WW2mXnyafnnT6UZlXOrz4OVvosUbRKe9U+b+RrypymG0UV3L89wPrhPeNF7yVlNvI9sLTyScP2NS7aSPeXD9zEq72a8K51/ecalMn+cNvSaf2iXPEZOvavvhK5bFiXty5WlnprePdijLy3bXCC/uTUPt67nbpmUuMor3f6dONme67o7kQd7C96Z9iyfqvmanFzyVidpYfMzEG9+q77HAeXmel/HwSxb9q4Unvu/ZB1Ta46wd+XtXMrB/ogbWr/LnfSzqS5C5Z5rus6J77kLu1T1Z3VCD+6n6xjQb3UhQqVk0DTidFgfC6qQazUyQG/ZKEhiqIJdgtt2CACPs/9CUhYzOxmM/q8Y+D8SefNXLRxfkouWCabGmyfoLWfQTUk5acjsg3zeNuJjxk3n4pXSkqMWHzLyxPD6OgwdU7MdtkGyfny6nQblODwyQlF/+zTrVNV596zA/EaefB+C8v4j+g3wlu8+Sb/mr06jLvPjytH06S50rS/nRfWsVTQNOqL2BsD2paCLaQTbAiOJgI93ZeGEH4bpWw33yNXo6Vt+gMpZL3KiKJdOibpJuTYj+1cJ2QL5fGnFZA3n4Tz99/VwYoES/WhzwIEojZJbTooEBQsXnWv/hy9QaijcNah/jNR4W5/3FrX7Unl/Lb5XG9d/vzBr8bxUlF00DTqkzD8vFv0HHL16zUfh5ehqaRt2wnrObRcQ6G1c3k/IOwredi0dstzJz56ZrlgtrPCqKpSVZE6KmmA7J900jLq//IE++Cnz+2OAlyeZt8KuFfUDl/TN73lbYo5ye4lzjvD8zez2ePm73O6Yvv6/tnylF04Dj6UwgbGoP9LdnXYOQEG8j7Fyo0DyJYSGLqUBl4H4JcjoI1z/vrabybb8kRT/bmtqNpIFcHfoTXm47xz3SiFoYvs1V8DKRPxn5Ehu1SQmeAs8apakF9i2npzrXOO/PxtRsy1T+y62yXouuCM5WNA04nvYGwonhAtENJsDwnyr+VFjSQbi+4ZjP5nI9GQTt9wZXGZ2Dr+RHBd9XhzyxkzsE5R5pRE0M5U198dYPzn3aTwLBqE1R21b9Gui+Npfy3spIWNmnnJ7qXOO8PwvdTnz0PZWV215YV/Fm7PP1737hNOCUWlwjPJRH87Rq4gEGtJgdFrJKw/Cd2mXqmh/7p13OfRBq/frstEkOfs6LegFYv8qNfqCniP3Stk3LQu51e8B904j6sKNGTfRDYaHFi0xUALXtiSZ46fay1XqbaLKMcpo3MEDpubYHzvsz0O2p00GwkaygMueCfZanaBpwSuoCXKjCLPWW0Y/wto/PvH6End4vzfLeJtEtaOPo/Wo9k1dZfYrOTb/Q6T4pM/I/7PvU9E/qfB5bOFhfapmIO12lJ9ancU5aYuXULW/7prHd9P7W0dxP9yEc5a3NHz1Pdl7lldN6SB/zrOtnUHZj+1hUTp1ynzpuRsm5Fju3kvKOZzfOez3tIpLpC19hOnP3WSmadmY6DWiHsrzs6f+pmXLpn+1KZkEDdCEf9QORg5+nnKfH0SZcl86PY94s5NdhOH7tUZaXnXlYDm23Q7MIAAAAhRrhjiAf0SaU5/PjmDcL+XUYjl97lOUlNcIAAAAXlTP6oH34MPjM/TzASIiHIxAGAAC4uCUjIV4AgTAAAEANxEYfVEEkIyGeHoEwAABALTES4qkRCAMAANQSIyGeGoEwAABA3TAS4lkQCAMAANROXx6+VjJ+HzjNDtQrfBBN9/QQfR48sBY0C9bLzcWfjaLpg/dxbMjr4ZszffAjT3PfTskzlLfVVGQSpuVZrv7T69s3jfVBP8IdQT6iTSjP58cxbxby6zAcv/Yoy0tqhAEAANBJBMIAAADoJAJhAAAAdFLv379/hY1gfv36Zf8CAAAAmkXFuvavNB6W6wjyEW1CeT4/jnmzkF+H4fi1R1le0jQCAAAAJ7e470nP6d84+f4SCIQBAADOYi2vN2G/uuHrXnYJBdevN5WCRxNkhv35IheBMAAAwBl505X5uV6/5n58FLhjGb6p9TuDaCAbgTAAAMCFDO98ke+/Ts1tstY4rDEOPh9MliJ2VLgbM7TxQu57N/L6Go7iFsyfbnaQt978eYP1b99nLZuih2yO5uvJhVs+lCIQBgAAuAgVYD7PRK5/RzW3i/tgKOKwxng1/ZaRaeKghzPW7z0RP5j+9RAutZTJRGRulnmTrFGM89drg/HZxza4XX/K+9KT8W2w/qJl41RQ/kfkv2g+T2bP9W6eQSAMAABwRsvJwNaYDuR9vJLNmw1d16/yPPNk+rgNZfsPT+Iv3+WzJJr059kBsFG23uGd+DKTDxsJrz/fZemNxcTBO6VpKG9Oc4z+7Vi85Y+s7Ps6IhAGAAA4o6iN8NxXQfFLopnBUiaDbdOCXm+kQtRjKFrvUIJKYZ2StXy+L8V/ctsXV0+TeZgvnG8wUUvWG4EwAADAJQwfZerN5Dlqi6v5tomD+/qSqBXE3orXO3yciqebR5hmEb7cxaqXK6ZpcS+DyfV23pVap51UVwTCAAAAF9GXhyenVrh/K+NUYJwh9nBdBVXWG87z512W/t22mUXVNGVYvFAjDABAp9RhkAA0SKx9rn4gbiXj97ANsX05D6YF7W4nMlCfb3t1KFO+Xj3P7diT5XIpfqw6uMqy1vAt6A7OzvN8NVX7Vm8MsdwR5CPahPJ8fqc65jpoHM30gz4bCZ8XOgfdjnHw87R9SEkxafmeyurAvlfNemQeW/e5cY4chuPXHmV5SY0wAOBCFvIx88T3PfuQzmUxAAHQPQTCAIDLWHzIzBvL4+M4eEjHfpymO/O/kde1Hjgg/GlWv7eTtdxO/JODDdzITeagBEFNbqxJQ+Y6g4EFYi0fFmrdmX2qWpXTtttQuwAORyAMALiIxcdMvPGt9Cs9jKO7b3qWq1XwNPpqKup9GDiWdeLvDjbwJV+5gxK41DoHaqFoKNy5qATmB7u5dklbQT+wAE6CQBgAcH62k/5g5Cr7kM77Z2Gg6c+33TWZDv3lW/6aBco78S8cbCCLrq1WW3iKguT4Nqo7QdoAHA2BMADg7GIjVylBgFg+elbcUn5sRHmSTvy9KxnYPw/RtAEGgC4hEAYAnFkwcpXYLqC2AeJS3neKhD250pHqqTrxP8bQsA0cYADoEgJhAMB5LV5ksvRkatv7hi/dfjY93OzWbLR9QG79+mwetAtrlF2VO/EvGpTA9u26bbe8kHvzQFxffl+HQ9Eq+kE43f9bRU0YYADoEgJh1Aad0Ac4Dmg7/ZCc+E+p4VmDdr/hwAJp/vxJfgZBDbKpZQ3b3u7RiX/5oARDeQueyLPNGp7l6r9ge8O3ufi2x4ne4Eee5gVba+AAA0CXMKBGR9Q/H3U3QiP96PRZO9WvH45DFVyXzu+yx1x3WTaQnyfOi6o4Rw7D8TuX05/bZXnZ/hrhRP+N+rWtbAv6g3Sn6dfN66vTV2XyRT+PJ2H6E53KY9dvciXHwTx0c+TaYlMDXdQHKiozx1JdJ5I1jHn5Fs7PDwBok9jDgcnyndunslI0DY2UvL+c4h52qHYHwrqT88FEruduO7S5yCgezOqhPbfTdZ+SD/IWvjcPNrht2ejm5hSi/kTt+666xHFgNK3j8rzidq5b9RpVDTgKFcz+eR/Lyt5DTb/J0T030Tfz3HfafRdNQ1M14f7S4kBYnVSjmQly49XtQxXkEszWSxAQBP2JBu+zR1tK1uDHv9DEayHcC2jRcsG02BfU2ChROWnJrbnYN41a8jjopKj5TFqC9WaNhlW+f3o7ej/C6fHtmm24B4BamcOMn2TqzdT37ZIDV3lUNYi6jT580SyiEfoP8pXsNzns7znZN/PwUZ0rtgu8omm109V7lJ3uJkanJbaO4F4TzrK9vwTbzb6Hafn3qJgT3J/aGwjbk+qOC2f92YAg/vR3erSlxf1AJtfBSFBBTcO3jMKLga6FcLso2oQd7+uTL2O5xMlfLJkWdcK6NRfOiFP7pdHKPA6hIBBIj4ZVZf+KRuRKyt83VDWQh/+mKrh9zr+YK7uNqgY01OpHXYGu5be6XK3/fmf2zfytouSiafXUwXuUYr7YOF/c13/1r2DOA67qg+/M2CvvHhaYjbb3qLmv9ucla+/VfhWO0rifzvQaEf+WEy9gs9H220VyGk5NXQSes5sDxEZbUieoHoVq6jSeNU+Yxzrgz3jafP0p70tf5k5VUnxEqmpiaUnWXKgpZuSofdNoZB+H0p+VKu5f/ohcCXn7Zt+hov6DPOmL+Z+ci7QtK7uMqgY0j72uTR+318+YoCu6bEXT6qFb9yir/1t9rQnn0f2Bizw9qdTaxJqBcvy7nPzO596jhnd+TteG8ftR1iiN++hMINx/+Aq+4WR0cxNvI+wUJpyeuQjEmwPk0zWb7peWkTodLf1z3Goq3/ZLTfSTi6mNSBrI1aE/ueWOOLVHGrWdjoNj7/0rmH6k0bS6znSxtZzIn4ya3uOMqgbUm6l9lKn8FwVkSWvRFcHZiqbVVYvvUZGhBHGqnraSn2sV9A6uRMwX+WCgHP+EP8XHKjUHx+mTu72BsO0MvfCbDS4u+PaY7k80m/rWHH1hCV/OTzf6JDafzeV6MgjaDqkTND2Kkzp5VdBpRqTaV+630D3SqOx2HBx771/B9GOMpgVlKG/qi7d+cO7TfhI41qhqQH3ptqGj76ms3Bo8XcWbcX25/t0vnNYc7b1HuXSNrfkFa/Eh3zqRunmX6C/yOt0nbJJ6olEaW1wjPJRH87QqD/vU1w7fHndqR6m/Tds/7XLug0vxEan2GCUqb8SpfdNYcBySXc8Y7k9GpfsXqDoiV/5oWtiLeeBnJhP9gEhoz1HVgGbQbV7TQbCRrKAy54INnIqmNUGr71EJev3Ld3n5+LZfVHQal/Lz8iGzKs0iikZ03MHRRmlUF+BCFWapt9V0o/LS7Ef48tQdyE7cqHtPbFp8umKW9zbuR02k96t2zLH1N+rbXcJ846v0+qkJGfnlTdWnytyPfx5bOFhfapmIO12lR68rmicnLbFy5ZaPPdKYexz0Is7ymrPdbTkt2r8gPf48sY92qma24e5g7r7Vh05bHeljGbt+aOHxtMc4dbwjOWWtJup6zJHtYvmVvM6Fr9j1Lvw8cX2p0bVHpyFf3rna0ntUBnMdc+8ldtnkIkX3l+BaGd6jgslGbP/igu2Gy0/VvmffO1163iKMLNcRdcxH3dZn8PMkm473iXTa4xA8kdy2Ebm4Lp0fx7xZyK/DcPzaoywvO/OwHOrm9I3qm4HjAADApRAI40LoID/AcQCyLVo7aAGA+iAQBlqNQBtNtmzfoAUAaoVAGABQW34rBy0AUBcEwgCABmn4oAUAaoVAGADQIC0YtABAbRAIAwCaoXWDFgC4NAJhAEBD6Ic/VzJ+HzjNDtQrfBBN9/QQfR48sBY0C9bLzcWfjaLpg/dxbOSz4ZszffAjT3PfTskzlLfVVGQSpuVZrv7T6ytJI4BaYUCNjiAf0SaU5/PjmDcL+XWY9hw/22OKbiTvZQx73QFleUmNMAAAQAss7hO/PixeVBBs26zbIDg1TwWmf+5YR9uH2ycdp0CNcEeQj2gTyvP5ccybhfw6TGuOn24u9Hx1cE2wDoQHP0+yaWCn9GV5SY0wAADACWSPdKibK+i/9YiFyWmhktEJc0Y1NLWs9o3Ztn7oczmRgZ7Pfu7OY+SsKxCkY6DbVtg29FG3hIVpLN/H3dJxOgTCAAAAx6YCu+yRDjXd1/SzXK2CacFzl9tAsnh0wvxRDV39hy/Z6Ic+ddtgPV9mbW7ZuoLRSVdTT48oY+b5MjuhA92y0RqL9zGu2j6dAoEwAADASWSMdGj5821gHBvpUAXQhaMT5o1qaN/tZN91VRytMXcfk465TzsiEAYAADi2vJEOc7kjHZaMTpg7quEe9lnX3qM1Fkw/5j7tgEAYAADgFLJGOszljnRYMjph7qiGe9hnXXuP1lgw/Zj7tAMCYQAAgJNyRjq0ZqPtw2OxkQ7LRifMG9XQvtvJLuv6/rv9vHS0xkDuPiYdc592RCAMAABwbLkjHQb8+ZP82OYPA/1QXdQmtmx0wrxRDfdRbV3927F4tveJoIlH+WiNWv4+Jh1zn3ZDP8IdQT6iTSjP58cxbxby6zCnPX5Bjws/T5tYYNwu9dnHsrzs/fv3rzCnf/36Zf8CAAAAmkXFuvavNGqEO4J8RJtQns+PY94s5NdhOH7tUZaXtBEGAABAJxEIAwAAoJMIhAEAANBJBMIAgEZb3PekVzxSQfPprrjO1K8q0CUEwgBawQRDvfQwpuvXm/YHSTVCPqRRBjtu/So36pzQ54V5nfALDWVtdwTCAFrD8zxZTl6E28BlkQ+ApWvyB+8yXm2HSl6N3+VP4osiLodAGEB7jJ9kmhj2M0139O7UzvTuo4AtVZtiRobaTlcfyL1aJr16/fmNvL6GI0mFy+RvSzPbi6ZthyItXi6YFktD7GfznLQkaqW2yxencS8Xywc9q1pXbEKwnWQNtZF5TPbLy+x1BcsMJks91qz5fJuOXdan0vPXfo4GUWVpNBN//iUPzhBp/Ycv+TIf1KSsuXKvE65gffeL4DwM5nWvX1r+Ng85v09CfTspVGEWNAD5iDbJKs9zXzbedLXZrKYbT7yN/lNbTb2NuhMFbxQ9n/veTPemGzO7WdbfhFNXU3/jebKJZk9M35pvfJUmSUzbZVtbq81UbTO1XDRvMN2ZrDe0XW9mWoLPzPEJ39v5C9PoqHoNuUQ+xNalj4W774l0bOUdk6zjV5LeaNlA8hgm910rXl+Qx7G06TQ56yzDNf8wRzl+ued4qA5lzVW87i17jXLOq+Q2Cre54/l9qLK8LM1pTqZ2IB/RJlnlWV94w8DBXITtRTd2Y8gMivTNKPwsuDEFs+uLvboYq8AqXG/WTSbgLmeVbctMTyyjZd4E3DRWC4RT07NuLKXHY6vqNeQS+RC/6cb3PzfP8o5JYnljh+NkJPIwlYay9SWWN2J5XI5r/mGOcvxyy1ioBmWtSFY5NEquQaXbdPd7l+vsfsrykqYRAFpn+DYXfznJaYe3lMnA/cluJDM7RS0pd+oK/f1XL7eSn+s7GQ6uRN4/Za3++3xfin+3y8D5BdvqP8jXairfo2Ba9DPm6kctlTSQK28pPyv7dh/elVpLlqLjcZjL5MNQHtVdevahf1ctmTf3mGQpPk6xZi6DSUYeJhWsL7MMoDvOWNYSdl93nlOd38dHIAyghYbyNvfNA1uf9pMtX+ab7YMrwWvbhm+ortBLfUFefMj3lQqT+rcylnf5XKsL9tKX3a7PxdsywbD5bC7Xk0HQJk7dELxgqkNv2xOdnL0tf9RaspSk8SCXyYf+7Vi82Ycs1p/yXjRv7jHJUpDexb0MJtfb6eoLTjoPkwrWl1kG0DjDO5XLMzHfyXZyxrLm2mvdeU53fh8bgTBaqxN9iyLf8NE8sDXRD4+E9MVWffacWUNp6ZvX8l1ePr7l+re+avfl9/VSfl4+ZObfqdCuoirbiugaX/unXc590Gz9+iwzbyy35iai0yO2xlPRD7eM8up3LHtD3qZlIff64bqd0rinS+RDeAx1jVbevHnHxL6L2fE4LV4yatK+/27XXba+/m+5dtNWJY9RQ/bXiVH8QTJd65r58KZ27rJWIHPdVVTZ5rGus8egovRCFWZBA3QvHzPaXqE1ssqz2zY1YtqqxR/aCNu36XVEr0TbS9Pm1G0bZ9r6FZWnvPJWsC27zugVWzhYX2qZiDs9aF+3nScnLeGxMC+3/V758dD051VcIh/MfIkPTTvDjHljMo/JHnmpBGkNXt50qtbhpNvZzvbYlOx/LG1qXfp9Rr7k0cthf8c8fmFZjF5RPtakrDkK1x0J1hdLd+wapJVvs+r5fSi9ziKlOV22grpwMy94ZWRe7MISvFIX7MTNKciQxE0p9soqJPWj09opqZMSbdK58lwDjTvm5lrejOvzKVwyv5KBXyywSdyHk0FPuGzq3nxmOg1oh7K8bFXTCHXi6L01r9X0W0Zuv3S6n7rBRK7nTnuV1VRkMtj+RGF/flInpp1nLvKsfyobypuzjKf+U+eoneftvFX4qGTxMRNvfCu2ORKAjtHXADn3T6ww99E/72NRYay5R6rAVmaj8F68kHt1H1Y30OD+OfedZgNB37F/RPdBbWYGzqK1bYT7D0+m/VfQjG4tr88qMFIn35t7VdQPqqgTMT4CkvtAigqAvx4IphpnIR8zT8ZBg0rzvq2DHeSnEegyfQ3QcTBh8Nnp+6pz3zQPLsq3mA4CFh/qruzLU/TElG4/HvaGElQ4fT0c8kQosLv2Piy3/qtOPRvUmieH3cDIYR6YsCepaeCtu/wgoGg0fbGNHiwKqXydiH2KNajFX9wPZHI9tzX79leEMGDVtRru07PR0646MM1YLhGgFkumJVFLEv0SsW8aga4LgqpYxQcuw3QFdy36eaj13+/MLuuCbrSAy2htIGyedowFQ8GJmC38RtqXh6+NzP2w/zsC4uZRgaqu/c9oFuHPnWYsKoh8nnkyfdzeKc2vCEvdfYv9IPpFwWG7Y5o7d9jg1wf7ZaqiWFqStST6Jq5rVPZNIwDUgr0eTx+317uYoAcU4JJaFQgvJ4PoZ+LR91RWsWYNRYFKvH/O4VtY+6abEBMMN0pR7X9KQYffTRjsIC+NAFAD5hctmcp/uT9VrUVXEgOX1NqH5TZuEGz6ZMwJVExtXHZtcf/hP6f9Eppg/fkuS/+pYhOBkk7GmzDYQVYaAeDCdD/uyQqpvq7+zbjWBf3IApfR3jbCMdmdWpsHlEbbn21SnVwvXmRyaICDM9phaMadOhlvwmAHThoB4GKCB3zTv8oq9loXNecy99jzjiIGpGxKVJilFnQ/wqX9Dib6CJZYp/JasgPo5HTF9IGY8XnN6f1pPZM3Wf2G7tFpebKsxBZO9Cud6q/Yna7SE+vTOCctsb41Kw52UJjGdtP7i/PimDfLxfIrdZ9NXJ9yr3XZ/fVfqj9hvW20Q1le9vT/1Ey5dNvDklnQAF3IR12jP/h5kg2Pirde/cpz0JvIz1N7eyrgXlCkfvlPfh2G49ceZXnZkaYRaL8dmkUAF6DbTG77k96f6TuaxuCNQ/4D9UQgjJYIur6jMhh1ZXqjSbaZRGeQ/0A9EQgDQCXBQ0D6Z7bglTWISjBMbDA9/nBuuiavZH36Qctomh5tMJh/MFmKzEbms3p0mdfekRvjqszbxfzH8XXlnKoHAmEAKKUv7uUjCs5Gz3K1CqfrfsjzbwKFowbqm09qtMFPuf3S83l6RBbz+Ve1fgLPoIUjN8aQ/zi3tp9TNaISWqjCLGgA8hFtcvbynNkjiX7KPXzqPejdI95xhztdr8JLPDmf7H3Gmd88eZ/VA0piPWeUf8wzekIp2z/bc0BqN/Y5zmW9suQdy7I0uvZJV2Jd585/rvmHuezxyyjHZWXGTG/QOXVGZXlJjTAAlNl7RMGi6QWjBmq5ow02RcH+NWHkRhf5j1po0TlVIwTCAFBm7xEFi6aXjBqYO9pgU7Rg5MYQ+Y9aaNE5VSMEwgBQpnREwYA7emXW9EjZqIF5ow3ad/L9t95t7to2ciP5j0tr2zlVJypaL1RhFjQA+Yg2uUx5DtrK6W2bV2xEQd3OzttM50E7vWCeeBu6dNvOoG1etL7kOm2bv2Ca08bO+fyco27p7WXLaENoFOyfaWPofB5vgFhwnDV3ujrGZe0ZtbxjWZTGlGblv56O/V32+HXlnDoPnYYijCzXEeQj2qSJ5Vl3bdTkkQ+5hhzm3PlPfh2G49ceZXlJ0wgAOIPVz1K8gxrlocnIf6CeCIQB4JRsx/OjmS9PdX5iBKdB/gO1RtOIjiAf0SaU5/PjmDcL+XUYjl97lOVl79+/f4U5/evXL/sXAAAA0Cwq1rV/pVEj3BHkI9qE8nx+HPNmIb8Ow/Frj7K8pI0wAAAAOolAGAAAAJ1EIAwAAIBOIhAGgGNa3EvPHQ73FM6xDQDoAAJhACi0ltebnnngwn3dVBxPf3Gv5neCVj3CWM8Z9x8AcDkEwgBQgT/fmCePw9dXxcERhm9q/q8HYSgFAKgfAmEAOIQdOSyoKb6R17/2c8vUCJsa4KBmeTBZisxGiVrlZK3zvcTqjEu2AQDYD4EwAOxNBbB/JiLTla0pfpKfycxOS+rLw9dGVlNPVy/HapUX9wOZXAef6ddq+i2jqDnFLtsAAOyCQBgAKpiNMmps15/yvvTlKWomMZS3uW//rmj9Ks8zT6aPQ/uBCpkfnsRfvsunjoSPsQ0AQCYCYQCoIN5G+E2Fo8rqR5Zm6qGWMhm4gfZIojrfo20DAJBEIAwA+xpciWf/PIwv8yjIDl9fYiqBj7YNAEASgTAA7Kv/W65lJs/hQ2/6obZRhfa7339t+1+lfytjz1lH0r7bAACUIhAGgAribYTDHh+G8raaikwGweeDH3lS74tqcPu3Y/GWExlE69AP0a1k/G7XEb6ih+V23wYAoJreRv8GV0BfeEtmQQOQj2gTyvP5ne6Y667jBvLztJG37fOC9aFH8Xu+ktW5+oI+0vY4Rw5zkeN37rLWEWV5SY0wAOCEFnKvbkT6ZpR+JfpLbjhGDeyKoN/vVFafcehzytrxEAgDAE5oKG8b+wCgadLhyXQVPhBoe98AgAshEAYA1IBbc3wj8WcHS0bei2TU1MVq6fR0ve6CbZWN4hebHm4r2C6jBmKrhmUtotOktveqzo3YfMXLm1roaJq7L0XLBdPyz8mctGTuu1Z1H6sjEAYAXNxs9CxXtqZ47i9l8rK9vRWPvLcr3WfzdlvBc4hOIFA4ip+6af8R+S9KhyezZ50ORg1EljqVtSSVNrX5oNvG4JeZwuVVYPpncu1082i7d9T7cZOx3E4BajItat8H7rGZi5h933UfqyEQBgBcnD8Pb6wiwzt/28WcugEXjry3B3dbZl3yLX/1ukpH8VPvnQeZgh5AfmRl36eUpZ1RA1uvNmUtgz93miZVWn4mH8no1u7H3HnSNbafFcXSsvhQW0ocG30sTnAt0AiEAQA1p2vW3J9DnZH3jmIpPzrCqDCKX+zn4cGkdP7CtDNqYAddqKxVUrB8/0G+VlP5tt1IRs0xMvdjIFee3c99eVdqLVmOfy0gEAYA1FzByHtH4cmVvuuWjeK3uJeB+/Nwpf6cGTWwrb4TVZ7rv9/2ryIXKmuVlCyvg2Hz2VyuJ4Og3W7mfqzkZ2n3c1+5td/HvxYQCKNRFvfqG2Cs1X03cRzQGWUj78X05fe1yCz8/Xb9mjkK32y0fdBn/fosM28st/pGuuMofouXjFo6Rg3sgL7cjj1ZTl6cdrALeZksxX+K9wFcm7JWZqfldY2v/dMuN3LuR7H9rHhOxgzvVLjrpmUh97od8KH7mEdF04UqzIIGaEc+zje+2g9ffR3stgOPw9zfiDfdrOzbJuK6dH5HOear6cYTbzONFb7VZuolynOqjAbz6DREr9wyHJwfwXz+Zh5bV7itxDxmmmXS6EzT751tzf1wmmy86VStx1neWdaLdrIk7SXb25deH/ZX5fitpp7Nt+C1zXOthmUtkncPKVhen0fu5/ET1tlH9Upts+iczElL7Ni414yq+7il5ylSmtNlK7gUt4AEr0QBs8L54gc5kWmxV3ZBM6/oYAcZES/0enZ1UpRkyKXo9DdeCwK4oyg5DqbMFx2nFhzHVpTnhmnHMQ+DE/u2xS6ZX8kAMXa8E/fVytPOTG//MN0pa3VXlpeNbhqhAlG9d+aV3V3HQj5mnvi+t62WN4blHbzrfu4G7zKOPlfbGL/Ln2NXyaOyxcdMvPFt7GenLio7DsM3VV4ZohPAJaxf5c/7WNQX7eC+qaLB2Si8Nye6xVLf2rdNB4qmAafTmjbCQXcdia49dBcc3lgeH8fizT4SQXIRdUKOZrFuT7T+w1fUXx/OLfhSMw4aHZn3be0QPD+NWvI46KSo+Zx+FFPth2PpUOujw/4M7S1PwFnpB6qS3X6FXWklu8UaPso07F2gaBpwQu15WG79V51q8acUo5qzXRtYm3X5crftqg6XZr/UOPGfsmxfh+C5abQyj0MRtW9/3HTQYX++FpYnJASDEThdnuLUTPda1/JbnRumV4WMbrF07wtF05qJstYUrQmEzROVboCgblK64+Wg5sw+4fn+We3mULFvx+Vk4NTC2CEPcQIqsHjObg7Qzg7BM9JoZB+HwqYQdNi/EzqYB47JXrOmj9uyHBP0KJCtaBpwPI0OhN1AdPQ9lZUTDKw/32OBcTAqy3FvDm4b5aAmxrNTcFQmsIg3B8hX0Nl2EzoEz0ujttNxsCp+qUOehpcn4ILMrxUylf9iP2u51pLf9W7RNOB4WvOwXLxGbC2f7+pWtJzIILw5mFFZlvJeJRK2fdhl18rh3MyXGv+pYofZLegQPCuNym7HwaLD/gO1oDwBF6CfVUhWUPV1FW9GOb7+3S+cBpxSe9oIuxYvMlE3nW1PEMFL19jGO8DOM5RH86Rr/EEl/WBMrIYOZxB8qfGrNNhuXYfgThoLjkPyYbkYOuzfX+vKE3AOuo18Ogg2kpVM5l5tn8cpmgackgoQC1WY5SJ0X6nJfnxDph/VzM77MjpuNv0WJjt4DyT7Qtz2vUo/wmdj8ierj+icTrht3mTmWxM6BM9LY+5x0Is4y4fv3cTE0qHWod+n9q9Z9L4cV0vL0xHp9aI5LpZfyfMifMWuZeHniXtv0bQz02lAO5TlZU//T82USzcrKJkFDdDUfNS18IOfJ9l0/NFbjkMc16Xz45gXCXoK+XmqTy8B5NdhLnv8Tlme6ldWT60sL9vZNAItsUOziFbjOABNV9iEaQem72qn2Q1Q5NTlJd5vfdAsRgee7qvuxZVAGDVGP4wBjgPQdIz4iK6IdWQw92U2SvSAVDMEwgCAA+SMhJeqHYoPKGJqqqJpTRiVr8q8evvh9PTD1vGauZL1pdIczG/6q5+NzGc8vN122eUpNXqoLUvx8lBWXvLLamnZ3MXwzQTD1ToquAwCYQDAgZIj4embdZtG5auWrtnoWa5sb0WrqchkkJ/u4m1npflTbr/0fJ6IHyzHkP/tlleehne+7nZmW7Yy+5gPfknMKy/uuue+OmdetiX16KNV1rxLWgJhAMDBYiPhqUC3VaPyVUyXP9/231yY7rJt56XZvkM35JanRGC5Tx/z7rpNYP39Nwh0dzkvWoJAGABwAi0alW/vdBVNL9l2bprRXWF5smMdmEj4FA9TVzwvWoJAGABwAi0alW/vdBVNL9l2bprRXdvy1L8di6ebR9hfK47bqVDF86Iq+wtHXTs+IhAGABxX20blK01XwB2NNGt6pGzbeWm276KfsdFqheUpLJODiSz9u21ToCy7lJddzosq7DnqTR+L03hJKtIvVGEWNAD5iDapX3kORndLj0zXHvnHvCuj8hWlS69HrXfubic+EqQZeTSWsJJt56XZ+TxvdFVNT8f+Lnv8ysuTFo5+W3jdSZWXoNzFTzn3HNKqnxfxkUwzlrvwCIGaTkcRRpbrCPIRbVK/8hz0KlA0WpPu8mj0PZXVgQ89XWqUQa4hhzl3vpFfh2nE8dNdB450DynOw6FIKctLmkYAwBkwoEK3rX6W4h3U0BmIW3zMRMqaRaAUgTAAVFKlk/n8TuoZUKGjbD6OZm53aMChFhLEwYTBhyIQBoBSDKiAPUW9Y/DzNY5pKG+qXJ25hVQrEQgDQBkGVACAViIQBoAyDKgAAK1EIAwAZRhQAQBaiUAYAMowoAIAtBKBMACU6svD11x821uDfg3ex4k+gT2Zzsfybps7DCbXMs9t16vXt5Lx+yBan3lFwe5Q3oKn7ey0Z7n6L1iXGVp1OZGB+pxeIwDgMAyo0RHkI9qkieX5UgNhHAvXkGYhvw7D8WuPsrykRhgAzoABFQCgfgiEAeCUGFABAGqLphEdQT6iTSjP58cxbxby6zAcv/Yoy0tqhAEAANBJvX///hV+5fn165f9CwAAAGgWFevav9JoGtER5CPahPJ8fhzzZiG/DsPxa4+yvKRpBAAAADqJQBgAAACdRCAMAACATiIQBgC02uK+J737hX13Jot7Z8hsAHVFIAwAqKm1vN6oILYXf506ptXDYZ89cEbHZZX1e6EUnh6BMACg1rzpyjz1bV5zX2ajnty8UteK9nHL+tyfyYgvZCdHIAwAaI7hmwmGl5MXp7YsWZtWVpOWN3/w+WCyFBVtm2nbgLtkG3Yo7WDajbz+tZ8Dexre+SLff1XJCxWVQT1Nlbv1Qu5j091l9HQ7u5G/vnRzomDeyueDK3ZunP4XnV0RCAMAmmV4J77M5MPeUBf3A5lcz6OatNX0W0YF7XPz5+/Lw5d+74n4wfSvh37JMpoKCv5MRKLavCf5mczMFGA/qkw9qzJ0/VuVykB5OV/KZPAhd2b6SqbeTEa9gfw8hfOLTP44ZfYmY302oDVB+OxjG9yuP+V96cn4tsr54FKB+R+R/6L5PJk9Z813QSphhSrMggYgH9EmlOfzu8wxX23UfXPjTVf2fWi+UbfpjT9Xf66mG0+8TXwWPX372dyXjQpsgzcV5lc36+38WtkyZrqvPnHM/Y14U7UHl8E5cpjzH7+grOvthq9YuS8tt8Hy8WKbKMe6TIblNKvMxtan/96uz6wrLM8VzqFcmds9rbK8pEYYANBwuibM/Zl2JMX1sbvOrxUss/pRU4HDRW2EU81/tH3KbY7MMjuQK28pPyv991CCSmGdgrV8vi/Ff3qIaqd3SYt5+DScbzCp3blCIAwAaJbFh7rp+nI3tO/V33MdPMReX2JbNWTYdX6tYJnBlXjBTMBxDB9N04bnWKPefcptjswyu5KfpSdXg+Dd8HEqnm4eYZpFuOebVjEti3sZTK63867UOu2kuiAQRqNcpD/QGuI4oLP0gzejmXjTRzH35f6tjFMBQ4Gq87sPKZUt0/8t1yo0j6bbNAL768vDk1MrvGs5L2PX5/ZKsX59lpk3FtsMeLvNP++y9O+C8007IC2LF2qEgQMs5EPdW/z419IOOvA40NE/GmY5GTg/rb7LeLV9iM0EDF8rGb878+hXbhkvn79/OxZvOZGB+jx4Sr5smaG8mSeR7PTBjzzVsOYLDRN7KHTXcl5Gr28uvu0dRb8G72NZfbnNH/pyO/ZkuVwm7jc7pGX4FnQDZ+d5vpqqfaqZTYkKs5xZukG5frntwfPmCRqepxuUB/KWmZoG48nPg5du8F20rfrQaWq8Cz98Uhslx8E8GFR0nFpwHOtans2xzzj/Uw+tWOH8GZNqpxXXkA65ZH6Z8q62H75i5ds8LLXHtDPT20c7lOVlY2uEowbl+qXuJlkdrKuTaDuPem1rEPKll3mQt/C9+YbvibrH2elv0U8F+2wLu1l8zMQb3zrfVrup7DgM31QZjH2rxzl5npfxkEsWXbPvie979oEUoAXWr/JH1yzae6EKitX9OexjdiH3A6ebOXPvDvu2LZoGnE47mkZkdrCOdgmChrAPQ3PR1J2Dv97bn2XCC21xJ9+xp1djnYsXLRdMizXJjTUvyElLbifi+6ZRSx4HnRQ1n/OTVKr9cCwdan109H9a46eg/86yNtz6gS9vLI+P4+CBFPsx0Gj9B/lyvoibZibyLX/1Bco+5PgUVhSZB8JsLwVF04ATak8b4UQH62gZGzQ48Z+ylMlE7NOoQe18YSffuqbCfXo1esK1uGPxapJpSdRubOYithPx/dJoZR6HImrf/rjpoKP/0xvIw3/6aevnwtqsqGb/2A/BAHViuum6lt/qmrX++y3iXakzJO5bRclF04BTavXDcrq5RF6tW559ltH2XQ5VqGDuObs5gD/fNk/RQeTzzJPp47ZRf//hSfzlu3xG19KML0u2a5j5W2K5sBajolhakrUbasqbriXZN41G9nEobAph9y2WjnntHlVon/6DPPnqy1E0ilOCLQdBzb59IOX9M3teoLHsNSvs4SOlL7+v7Z8pRdOA42l1IBxvt+sEKQX2WUbbdzlUkBjasVhBJ9/6J7vVVL7tl5aoTXlpx+J7yqjdCOyRRm2n42DR0f/FDN/m6gvORP5k1PSuP99l6dTsB70UuF+GgOYzv37JVP6L/azlWouuCM5WNA04nvYEwrYGrvM9a7WQCRr8p4qdhpd08q0DTfPZXK4ng6DdboWOxfey/FFrybJHGpXdjoNFR/8XFNS+62cXPu0ngWCUJjXBdM9lvgyZ0ZaW8k4kjJbQzyqMvqex7rj6uoo347p4/btfOA04pXYEwutEB+toETu0Y5VvODu1tdQ1vvbP0o7Fg5/ooif7bXkrZNusb9OykHvdDnjfNBYch+TDcjF09H9ZdnSoycSpl1+8yER9ydr2PhO89NP1PPCL5tPPXKSDYCP5LI85F2wFVtE04JTUBbhQhVnOLKvfXm8T77azvB/h+DS9fIX+gE0fh7tsqz50mhrJHHPdX3PS3PTv7KcmZORH2Geu7j/X/Ty2cLC+1DIRd7pKT6wv3py0xPrEdMvNHmnMPQ56EWf58L2bmFg61Dr0+9T+NYvelzrSxz517ofH3+ZJKn8ieWW6Hup6zJHtYvmVvIaFr9i1LPw8cT8tmnZmOg1oh7K87On/qZly6Z/tSmZBAzQ1H3VXYoOfJ9k4D7J1EcchjuvS+XHMi+ha0IH8PG2kLqco+XWY7h6/+pXlQ5XlZasflkPT7dAsotU4DkDTFTZh2oHpZ7ysj2qgBpJlft+yG+8bP2h6o4Nb93XIKUEgjBrT45m351vp/jgOQNMx4iO65pRlvsrowlURCAMADtDeUR7jqsyrtx9Oj48Kma4NK1lfKs3B/AP94OVsZD7b98aPfXWlrGvZZTleO6sF680qi9t5g3myym7+sdnBgaMLEwgDAA7UwlEeY6qlazZ6livbG8hqKjIZ5Ke7eNtZaf6U2y89n6c7rjeff+3UlyKOo+1lPZBXlod3vu5CaZvGSv3bB79qpspu7rHZwwGjCxMIAwAO1s5RHq2K6fLn2xt5YbrLtp2XZvsOl9Xqsm7lluVEwLlX//Yx+wWvx0QgDAA4gT1GUKzTKI+uvdNVNL1k27lpRv20qKznCtM1lMepZ/vVP/BB7qKRVM+IQBgAcAItGOUxtHe6iqaXbDs3zaifFpX1XNt0mSHhdfMIW6t9UIdGWcdmHweMLkwgDAA4rraN8liarsBstH3YJ2t6pGzbeWm27+T7b27bTpxZ28q6VViWw7TroeH9u23TjCpyy65zbHZlj83eowurbwWFKsyCBiAf0SaU5/PLP+YtHeUxpShdej1qvXN3O/GRIFdTL7GfJdvOS7PzedEIpno69pd9/LpQ1svLsmbKs5qWPhZbRaOcmrJbeGy24uvJ2I+SUQj1PEUYWa4jyEe0CeX5/Djmh9HdRJ1zdEjy6zAcvxK6K7eR7rHCeVivpsrykqYRAACc2OpnKd5BjT+B+lh8zER2bRZRUwTCAACcim6/2OvJaOZ2awU02UKCOLgNYbAITSM6gnxEm1Cez49j3izk12E4fu1Rlpe9f//+Feb0r1+/7F8AAABAs6hY1/6VVloj/H//93/yv//9z75DU5GPaBPK8/lxzJuF/DoMx689yvKSNsIAAADoJAJhAAAAdBKBMAAAADqJQBgAAACdRCAMAACATiIQBgAAQCcRCAMAAKCTCIQBAADQQSL/H/IxS4EGbsEqAAAAAElFTkSuQmCC;" vertex="1" parent="1">
                    <mxGeometry x="470" y="477" width="706" height="318" as="geometry"/>
                </mxCell>
                <mxCell id="6" value="&lt;font style=&quot;font-size: 18px;&quot;&gt;&lt;b&gt;&lt;u&gt;To Plan list:&lt;/u&gt;&lt;/b&gt;&lt;br&gt;&lt;br&gt;- Elephant sql&amp;nbsp;&lt;span style=&quot;color: rgb(189, 193, 198); font-family: &amp;quot;Google Sans&amp;quot;, arial, sans-serif; font-size: 16px; text-align: start; background-color: rgb(32, 33, 36);&quot;&gt;✔&lt;/span&gt;&lt;br&gt;- .env files, git ignore&amp;nbsp;&lt;span style=&quot;color: rgb(189, 193, 198); font-family: &amp;quot;Google Sans&amp;quot;, arial, sans-serif; font-size: 16px; text-align: start; background-color: rgb(32, 33, 36);&quot;&gt;✔&lt;/span&gt;&lt;br&gt;-Set up server&amp;nbsp;&lt;span style=&quot;color: rgb(189, 193, 198); font-family: &amp;quot;Google Sans&amp;quot;, arial, sans-serif; font-size: 16px; text-align: start; background-color: rgb(32, 33, 36);&quot;&gt;✔&lt;/span&gt;&lt;br&gt;- Dependencies to install: express, pg&amp;nbsp;&lt;span style=&quot;color: rgb(189, 193, 198); font-family: &amp;quot;Google Sans&amp;quot;, arial, sans-serif; font-size: 16px; text-align: start; background-color: rgb(32, 33, 36);&quot;&gt;✔&lt;/span&gt;&lt;br&gt;-Dev-Dependencies:&lt;br&gt;-dotenv, morgan, nodemon&lt;br&gt;-type: module&amp;nbsp;&lt;span style=&quot;color: rgb(189, 193, 198); font-family: &amp;quot;Google Sans&amp;quot;, arial, sans-serif; font-size: 16px; text-align: start; background-color: rgb(32, 33, 36);&quot;&gt;✔&lt;/span&gt;&lt;br&gt;&lt;br&gt;- DB Init script: drop, create, seed&lt;br&gt;&lt;br&gt;- Helper functions: getAllResources, getByTopic, createResource&amp;nbsp;&lt;br&gt;&lt;br&gt;- Route Handlers: Endpoints: retrieve all resources, retreive resources by topic, create a new resource&lt;/font&gt;" style="rounded=0;whiteSpace=wrap;html=1;" vertex="1" parent="1">
                    <mxGeometry x="160" y="305" width="290" height="490" as="geometry"/>
                </mxCell>
            </root>
        </mxGraphModel>
    </diagram>
</mxfile>